<svg width="27" height="27" viewBox="0 0 27 27" fill="none" xmlns="http://www.w3.org/2000/svg">
<rect x="1.08" y="1.08" width="24.84" height="24.84" rx="4.98742" stroke="black" stroke-width="2.16"/>
<path fill-rule="evenodd" clip-rule="evenodd" d="M5.49242 4.32007C4.84508 4.32007 4.32031 4.84484 4.32031 5.49217V7.95383C4.32031 9.60617 6.25768 10.4984 7.51327 9.42424C8.29082 8.75906 8.41609 7.6035 7.79915 6.78715L7.45746 6.33502C7.36011 6.20621 7.27862 6.06859 7.21336 5.92497C6.88006 5.1915 6.29807 4.32007 5.49242 4.32007ZM9.90467 4.32007C8.81872 4.32007 8.19695 5.55789 8.84532 6.42904C9.3018 7.04237 10.1821 7.14107 10.7631 6.64407C11.6952 5.84668 11.1313 4.32007 9.90467 4.32007ZM15.0207 4.32007C14.8895 4.32007 14.7699 4.38733 14.6728 4.47566L11.6069 7.26636C10.8834 7.92489 10.7772 9.02472 11.3613 9.80952C11.6184 10.155 11.984 10.4134 12.4108 10.4711C14.558 10.7612 17.4243 9.98764 19.7844 9.04155C19.9304 8.983 19.895 8.94906 20.0523 8.95296C21.0268 8.97715 21.2643 9.80752 20.3359 10.1049C18.8366 10.5851 17.1 11.0738 15.5075 11.3583C13.5956 11.6999 11.7868 13.0888 11.1075 14.9083C10.9871 15.2309 10.8565 15.545 10.7127 15.8571C10.1293 17.1235 8.79175 18.5182 7.73971 19.4332C7.26333 19.8476 6.80965 19.3627 7.17387 18.8469C8.80011 16.5442 10.6627 13.5139 11.0022 11.6634C11.0692 11.2984 10.9359 10.9377 10.7121 10.6416C10.0965 9.82708 8.91423 9.71728 8.15917 10.4046L5.91993 12.4428C5.22168 13.0783 4.32031 13.8034 4.32031 14.7476V17.9916C4.32031 20.581 6.4194 22.6801 9.00877 22.6801H10.1684C12.8347 22.6801 15.0777 20.7104 15.3333 18.0564C15.3554 17.8261 15.3773 17.5985 15.3992 17.374C15.4261 17.0981 15.1629 16.8835 14.8984 16.9666C14.6207 17.0539 14.3515 17.1391 14.0935 17.2214C13.7902 17.3181 13.5801 16.8917 13.8432 16.7125C14.1264 16.5197 14.4323 16.3645 14.7539 16.2463C14.8629 16.2063 14.9759 16.1645 15.0922 16.1212C15.3699 16.018 15.5678 15.7361 15.6023 15.4419C15.6857 14.7319 14.8516 14.2643 14.2812 14.6954L13.106 15.5835C12.9129 15.7295 12.7638 15.925 12.6637 16.1454C12.2019 17.1623 11.5111 18.2926 10.4779 19.6257C10.4415 19.6728 10.4118 19.7051 10.3642 19.7409C9.86125 20.1187 9.59967 19.8107 9.97857 19.3086C11.6623 17.0774 12.4172 15.0325 12.5198 14.1899C12.533 14.0814 12.596 13.962 12.7012 13.9322C13.0135 13.8439 13.754 14.0763 14.0129 13.8806L15.9823 12.3923L16.1736 12.2478L16.2883 12.161L16.4492 12.0395L16.8095 11.7671C16.9358 11.6717 17.1173 11.7571 17.1244 11.9152C17.0785 13.1292 17.0341 14.2301 16.9915 15.2298C16.988 15.3137 17.0714 15.3739 17.1499 15.344C18.9869 14.6456 21.0034 13.8789 22.1697 13.5152C22.4377 13.4316 22.6803 13.2133 22.6803 12.9325V8.75038C22.6803 6.30359 20.6968 4.32007 18.25 4.32007L15.0207 4.32007ZM19.7376 22.6801C21.3628 22.6801 22.6803 21.3626 22.6803 19.7373V18.543C22.6803 16.5896 21.0118 15.1266 19.1376 15.6775C17.9239 16.0343 16.9068 17.1797 16.8449 18.4433C16.8256 18.8388 16.8068 19.2115 16.7887 19.5631C16.7014 21.2545 18.0439 22.6801 19.7376 22.6801ZM7.08035 12.3578C7.01583 12.3198 6.94317 12.3797 6.96194 12.4522C7.16026 13.219 7.37174 14.0366 7.38647 14.8451C7.40032 15.6053 7.84264 15.8746 8.08503 15.1539C8.10076 15.1071 8.11027 15.0808 8.12941 15.0353C8.20655 14.8519 8.26095 14.6957 8.29671 14.5601C8.381 14.2405 8.60335 13.9014 8.90437 13.7649C9.07753 13.6864 9.2525 13.5989 9.4238 13.5018C9.97657 13.1884 9.73567 12.7619 9.14694 13.001C8.90977 13.0974 8.67175 13.1941 8.45233 13.2746C8.21296 13.3624 7.95532 13.2577 7.80444 13.0522C7.60208 12.7765 7.36846 12.5276 7.08035 12.3578ZM13.4582 6.9348C13.2789 6.85354 13.1129 7.0275 13.1695 7.21612C13.3491 7.8143 13.5553 8.50102 13.6216 9.15537C13.6807 9.73719 13.9803 9.92147 14.2803 9.4195C14.4686 9.10448 14.7758 8.92538 15.1265 8.81711C15.7916 8.61176 16.4549 8.28702 16.9647 8.03745C17.0384 8.00134 17.109 7.9668 17.1759 7.93443C17.2813 7.88336 17.2523 7.70767 17.1356 7.69705C16.6203 7.6841 16.179 7.80985 15.67 7.95493C15.3407 8.04876 14.9832 8.15066 14.5588 8.22836C14.5186 8.23573 14.4802 8.20858 14.4728 8.16835C14.3684 7.6079 13.9699 7.16657 13.4582 6.9348Z" fill="black"/>
</svg>
